<svg width="54" height="54" viewBox="0 0 54 54" fill="none" xmlns="http://www.w3.org/2000/svg">
<path d="M21 12C12.716 12 6 18.716 6 27C6 35.284 12.716 42 21 42C29.284 42 36 35.284 36 27C36 18.716 29.284 12 21 12ZM21 40C13.832 40 8 34.168 8 27C8 19.832 13.832 14 21 14C28.168 14 34 19.832 34 27C34 34.168 28.168 40 21 40ZM26.536 20.05L21.038 25.548L16.108 20.05C15.9194 19.8678 15.6668 19.767 15.4046 19.7693C15.1424 19.7716 14.8916 19.8768 14.7062 20.0622C14.5208 20.2476 14.4156 20.4984 14.4133 20.7606C14.411 21.0228 14.5118 21.2754 14.694 21.464L19.626 26.962L14.052 32.536C13.8698 32.7246 13.769 32.9772 13.7713 33.2394C13.7736 33.5016 13.8788 33.7524 14.0642 33.9378C14.2496 34.1232 14.5004 34.2284 14.7626 34.2307C15.0248 34.233 15.2774 34.1322 15.466 33.95L20.964 28.452L25.896 33.95C26.0846 34.1322 26.3372 34.233 26.5994 34.2307C26.8616 34.2284 27.1124 34.1232 27.2978 33.9378C27.4832 33.7524 27.5884 33.5016 27.5907 33.2394C27.593 32.9772 27.4922 32.7246 27.31 32.536L22.376 27.038L27.95 21.464C28.1322 21.2754 28.233 21.0228 28.2307 20.7606C28.2284 20.4984 28.1232 20.2476 27.9378 20.0622C27.7524 19.8768 27.5016 19.7716 27.2394 19.7693C26.9772 19.767 26.7246 19.8678 26.536 20.05Z" fill="black"/>
</svg>
