<svg width="52" height="52" viewBox="0 0 52 52" fill="none" xmlns="http://www.w3.org/2000/svg">
<path d="M39.884 8.996C39.2669 8.996 38.6637 9.17898 38.1506 9.52182C37.6375 9.86465 37.2376 10.3519 37.0015 10.922C36.7653 11.4921 36.7036 12.1195 36.8239 12.7247C36.9443 13.3299 37.2415 13.8858 37.6778 14.3222C38.1142 14.7585 38.6701 15.0557 39.2753 15.176C39.8805 15.2964 40.5079 15.2346 41.078 14.9985C41.6481 14.7624 42.1354 14.3625 42.4782 13.8494C42.821 13.3363 43.004 12.7331 43.004 12.116C43.004 11.2885 42.6753 10.4949 42.0902 9.90983C41.5051 9.32471 40.7115 8.996 39.884 8.996ZM51.844 15.288C51.7934 13.1308 51.3894 10.9964 50.648 8.97C49.9869 7.23614 48.958 5.66612 47.632 4.368C46.3445 3.03531 44.7709 2.01286 43.03 1.378C41.0089 0.614018 38.8722 0.200746 36.712 0.156C33.956 -1.45286e-07 33.072 0 26 0C18.928 0 18.044 -1.45286e-07 15.288 0.156C13.1278 0.200746 10.9911 0.614018 8.97 1.378C7.23236 2.01929 5.66003 3.04086 4.368 4.368C3.03531 5.65546 2.01286 7.22914 1.378 8.97C0.614018 10.9911 0.200746 13.1278 0.156 15.288C-1.45286e-07 18.044 0 18.928 0 26C0 33.072 -1.45286e-07 33.956 0.156 36.712C0.200746 38.8722 0.614018 41.0089 1.378 43.03C2.01286 44.7709 3.03531 46.3445 4.368 47.632C5.66003 48.9591 7.23236 49.9807 8.97 50.622C10.9911 51.386 13.1278 51.7993 15.288 51.844C18.044 52 18.928 52 26 52C33.072 52 33.956 52 36.712 51.844C38.8722 51.7993 41.0089 51.386 43.03 50.622C44.7709 49.9871 46.3445 48.9647 47.632 47.632C48.9638 46.3387 49.9937 44.7673 50.648 43.03C51.3894 41.0035 51.7934 38.8692 51.844 36.712C51.844 33.956 52 33.072 52 26C52 18.928 52 18.044 51.844 15.288ZM47.164 36.4C47.1451 38.0504 46.8462 39.6856 46.28 41.236C45.8649 42.3675 45.1981 43.3899 44.33 44.226C43.4867 45.0853 42.4664 45.7507 41.34 46.176C39.7896 46.7422 38.1544 47.0411 36.504 47.06C33.904 47.19 32.942 47.216 26.104 47.216C19.266 47.216 18.304 47.216 15.704 47.06C13.9903 47.0921 12.2839 46.8282 10.66 46.28C9.58303 45.833 8.60952 45.1692 7.8 44.33C6.93703 43.4947 6.27859 42.4715 5.876 41.34C5.24123 39.7674 4.88915 38.095 4.836 36.4C4.836 33.8 4.68 32.838 4.68 26C4.68 19.162 4.68 18.2 4.836 15.6C4.84765 13.9127 5.15567 12.2407 5.746 10.66C6.20372 9.56257 6.90629 8.58431 7.8 7.8C8.58991 6.90604 9.56615 6.19605 10.66 5.72C12.2448 5.14811 13.9152 4.84921 15.6 4.836C18.2 4.836 19.162 4.68 26 4.68C32.838 4.68 33.8 4.68 36.4 4.836C38.0504 4.85493 39.6856 5.15384 41.236 5.72C42.4175 6.1585 43.478 6.8714 44.33 7.8C45.182 8.59866 45.8478 9.5751 46.28 10.66C46.8579 12.2432 47.1569 13.9146 47.164 15.6C47.294 18.2 47.32 19.162 47.32 26C47.32 32.838 47.294 33.8 47.164 36.4ZM26 12.662C23.3631 12.6671 20.7869 13.4538 18.5969 14.9225C16.4069 16.3912 14.7014 18.4761 13.6958 20.9138C12.6903 23.3514 12.4299 26.0324 12.9475 28.618C13.465 31.2036 14.7374 33.5778 16.6038 35.4405C18.4702 37.3033 20.8468 38.571 23.4334 39.0836C26.02 39.5961 28.7005 39.3305 31.1362 38.3202C33.5719 37.3099 35.6535 35.6003 37.1179 33.4075C38.5824 31.2146 39.364 28.6369 39.364 26C39.3674 24.2453 39.0239 22.5072 38.3532 20.8857C37.6825 19.2642 36.6978 17.7913 35.4559 16.5517C34.2139 15.3122 32.7391 14.3304 31.1163 13.6628C29.4935 12.9953 27.7547 12.6551 26 12.662ZM26 34.658C24.2876 34.658 22.6137 34.1502 21.1899 33.1989C19.7661 32.2475 18.6564 30.8953 18.001 29.3133C17.3457 27.7312 17.1743 25.9904 17.5084 24.3109C17.8424 22.6314 18.667 21.0887 19.8779 19.8779C21.0887 18.667 22.6314 17.8424 24.3109 17.5084C25.9904 17.1743 27.7312 17.3457 29.3133 18.001C30.8953 18.6564 32.2475 19.7661 33.1989 21.1899C34.1502 22.6137 34.658 24.2876 34.658 26C34.658 27.137 34.4341 28.2628 33.9989 29.3133C33.5638 30.3637 32.9261 31.3182 32.1221 32.1221C31.3182 32.9261 30.3637 33.5638 29.3133 33.9989C28.2628 34.4341 27.137 34.658 26 34.658Z" fill="black"/>
</svg>
